<svg width="71" height="57" viewBox="0 0 71 57" fill="none" xmlns="http://www.w3.org/2000/svg">
<path fill-rule="evenodd" clip-rule="evenodd" d="M0 28.5C0 12.8831 12.1972 0 27.5125 0C40.6947 0 51.5751 9.55452 54.3423 22.1679C63.6785 22.2817 71 30.1566 71 39.5833C71 49.0791 63.5709 57 54.1375 57H27.5125C12.1972 57 0 44.1169 0 28.5Z" fill="#F0F7F4"/>
<path fill-rule="evenodd" clip-rule="evenodd" d="M29.5823 13.8291L49.1788 34.1932L49.1785 34.1934C49.1786 34.1935 49.1786 34.1936 49.1787 34.1936C52.7863 37.9425 52.3459 44.2426 48.195 48.2651C44.0442 52.2877 37.7547 52.5095 34.1471 48.7606C34.1302 48.743 34.1133 48.7254 34.0966 48.7077L14.596 28.4431L14.5508 28.3965C10.9432 24.6475 11.3836 18.3475 15.5344 14.3249C19.6852 10.3024 25.9745 10.0805 29.5822 13.8293L29.5823 13.8291Z" fill="#101012"/>
<path fill-rule="evenodd" clip-rule="evenodd" d="M16.1396 14.9531C12.3346 18.6404 12.0663 24.5561 15.5402 28.1662L15.5401 28.1663L34.3879 47.7524C34.3955 47.7604 34.4032 47.7684 34.4109 47.7764C37.8849 51.3865 43.7856 51.3239 47.5906 47.6365C51.3955 43.9492 51.6639 38.0334 48.1899 34.4234C48.1898 34.4233 48.1897 34.4232 48.1897 34.4232L48.1897 34.4231L29.3454 14.8405L29.3193 14.8132C25.8453 11.2032 19.9445 11.2658 16.1396 14.9531Z" fill="#F0F7F4"/>
<path fill-rule="evenodd" clip-rule="evenodd" d="M34.6744 46.7922C38.0147 50.2634 43.5268 50.36 46.9858 47.0079C50.4449 43.6557 50.5411 38.1243 47.2007 34.653C47.1879 34.6397 47.175 34.6264 47.162 34.6131L29.0558 15.7975L29.0557 15.7976C25.7153 12.3264 20.2033 12.2299 16.7443 15.582C13.2852 18.9341 13.189 24.4656 16.5294 27.9368L16.564 27.9726L34.6742 46.7923L34.6744 46.7922Z" fill="#101012"/>
<rect width="1.74454" height="17.4433" transform="matrix(0.693394 0.720559 -0.718119 0.695921 37.5234 24.5969)" fill="#F0F7F4"/>
</svg>
